<?xml version="1.0"?>
<svg xmlns="http://www.w3.org/2000/svg" xmlns:xlink="http://www.w3.org/1999/xlink" version="1.1" id="Capa_1" x="0px" y="0px" viewBox="0 0 512 512" style="enable-background:new 0 0 512 512;" xml:space="preserve" width="512px" height="512px" class=""><g><path style="fill:#ECEFF1" d="M480,80H32C14.368,80,0,94.368,0,112v288c0,17.664,14.368,32,32,32h448c17.664,0,32-14.336,32-32V112  C512,94.368,497.664,80,480,80z" data-original="#ECEFF1" class=""/><rect y="144" style="fill:#455A64;" width="512" height="96" data-original="#455A64"/><path style="fill:#90A4AE;" d="M176,336H80c-8.832,0-16-7.168-16-16l0,0c0-8.832,7.168-16,16-16h96c8.832,0,16,7.168,16,16l0,0  C192,328.832,184.832,336,176,336z" data-original="#90A4AE" class=""/><circle style="fill:#ECEFF1" cx="336" cy="320" r="48" data-original="#F44336" class="active-path" data-old_color="#F44336"/><circle style="fill:#ECEFF1" cx="400" cy="320" r="48" data-original="#FFC107" class="" data-old_color="#FFC107"/></g> </svg>
